<svg width="80" height="80" viewBox="0 0 80 80" fill="none" xmlns="http://www.w3.org/2000/svg">
<g filter="url(#filter0_d_12951_197296)">
<rect x="16" y="16" width="40" height="40" rx="20" fill="#F2F6FF"/>
<path d="M43.63 27.6523C43.5138 27.5583 43.3781 27.4915 43.2327 27.4569C43.0873 27.4223 42.9361 27.4207 42.79 27.4523C41.7214 27.6762 40.6183 27.6791 39.5486 27.4606C38.4789 27.2422 37.4653 26.8072 36.57 26.1823C36.4026 26.0661 36.2037 26.0039 36 26.0039C35.7963 26.0039 35.5974 26.0661 35.43 26.1823C34.5348 26.8072 33.5211 27.2422 32.4514 27.4606C31.3817 27.6791 30.2786 27.6762 29.21 27.4523C29.0639 27.4207 28.9127 27.4223 28.7673 27.4569C28.6219 27.4915 28.4862 27.5583 28.37 27.6523C28.254 27.7464 28.1605 27.8653 28.0965 28.0003C28.0325 28.1353 27.9995 28.2829 28 28.4323V35.8823C27.9991 37.316 28.3408 38.7292 28.9965 40.0042C29.6523 41.2792 30.6032 42.3791 31.77 43.2123L35.42 45.8123C35.5894 45.9328 35.7921 45.9976 36 45.9976C36.2079 45.9976 36.4106 45.9328 36.58 45.8123L40.23 43.2123C41.3968 42.3791 42.3477 41.2792 43.0035 40.0042C43.6592 38.7292 44.0009 37.316 44 35.8823V28.4323C44.0005 28.2829 43.9675 28.1353 43.9035 28.0003C43.8395 27.8653 43.746 27.7464 43.63 27.6523ZM42 35.8823C42.0008 36.997 41.7353 38.0958 41.2257 39.0873C40.716 40.0787 39.977 40.9341 39.07 41.5823L36 43.7723L32.93 41.5823C32.023 40.9341 31.284 40.0787 30.7744 39.0873C30.2647 38.0958 29.9992 36.997 30 35.8823V29.5823C32.0964 29.7617 34.196 29.2753 36 28.1923C37.804 29.2753 39.9036 29.7617 42 29.5823V35.8823ZM37.54 33.5923L34.85 36.2923L33.96 35.3923C33.7717 35.204 33.5163 35.0982 33.25 35.0982C32.9837 35.0982 32.7283 35.204 32.54 35.3923C32.3517 35.5806 32.2459 35.836 32.2459 36.1023C32.2459 36.3686 32.3517 36.624 32.54 36.8123L34.14 38.4123C34.233 38.506 34.3436 38.5804 34.4654 38.6312C34.5873 38.6819 34.718 38.7081 34.85 38.7081C34.982 38.7081 35.1127 38.6819 35.2346 38.6312C35.3564 38.5804 35.467 38.506 35.56 38.4123L39 35.0023C39.1883 34.814 39.2941 34.5586 39.2941 34.2923C39.2941 34.026 39.1883 33.7706 39 33.5823C38.8117 33.394 38.5563 33.2882 38.29 33.2882C38.0237 33.2882 37.7683 33.394 37.58 33.5823L37.54 33.5923Z" fill="#FFBA49"/>
</g>
<defs>
<filter id="filter0_d_12951_197296" x="0" y="0" width="80" height="80" filterUnits="userSpaceOnUse" color-interpolation-filters="sRGB">
<feFlood flood-opacity="0" result="BackgroundImageFix"/>
<feColorMatrix in="SourceAlpha" type="matrix" values="0 0 0 0 0 0 0 0 0 0 0 0 0 0 0 0 0 0 127 0" result="hardAlpha"/>
<feOffset dx="4" dy="4"/>
<feGaussianBlur stdDeviation="10"/>
<feComposite in2="hardAlpha" operator="out"/>
<feColorMatrix type="matrix" values="0 0 0 0 0.760784 0 0 0 0 0.831373 0 0 0 0 1 0 0 0 0.4 0"/>
<feBlend mode="normal" in2="BackgroundImageFix" result="effect1_dropShadow_12951_197296"/>
<feBlend mode="normal" in="SourceGraphic" in2="effect1_dropShadow_12951_197296" result="shape"/>
</filter>
</defs>
</svg>
