<svg width="80" height="80" viewBox="0 0 80 80" fill="none" xmlns="http://www.w3.org/2000/svg">
<g filter="url(#filter0_d_12951_197294)">
<rect x="16" y="16" width="40" height="40" rx="20" fill="#F2F6FF"/>
<path d="M43.4155 37.0352C43.1955 37.0352 42.9655 36.9652 42.7455 36.9152C42.3004 36.8156 41.8627 36.6853 41.4355 36.5252C40.9716 36.3564 40.4617 36.3652 40.0039 36.5498C39.546 36.7344 39.1726 37.0818 38.9555 37.5252L38.7355 37.9852C37.7644 37.4344 36.8672 36.7623 36.0655 35.9852C35.2884 35.1835 34.6163 34.2863 34.0655 33.3152L34.5255 33.1052C34.9689 32.8881 35.3163 32.5147 35.5009 32.0568C35.6855 31.599 35.6943 31.0891 35.5255 30.6252C35.3667 30.1942 35.2364 29.7532 35.1355 29.3052C35.0855 29.0852 35.0455 28.8552 35.0155 28.6352C34.8941 27.9308 34.5252 27.2929 33.9752 26.8364C33.4252 26.3799 32.7302 26.1348 32.0155 26.1452H29.0055C28.5828 26.1446 28.1647 26.2334 27.7787 26.4057C27.3926 26.5781 27.0474 26.8301 26.7655 27.1452C26.4779 27.4688 26.2637 27.8509 26.1376 28.2652C26.0116 28.6795 25.9768 29.1161 26.0355 29.5452C26.5791 33.7073 28.4808 37.5738 31.4455 40.5452C34.4169 43.5099 38.2834 45.4116 42.4455 45.9552C42.5754 45.9651 42.7057 45.9651 42.8355 45.9552C43.573 45.9562 44.2849 45.6857 44.8355 45.1952C45.1506 44.9133 45.4026 44.5681 45.575 44.182C45.7473 43.796 45.8361 43.3779 45.8355 42.9552V39.9552C45.8301 39.2642 45.5864 38.5963 45.1455 38.0643C44.7046 37.5322 44.0935 37.1687 43.4155 37.0352ZM43.9055 43.0352C43.9052 43.1747 43.8757 43.3126 43.8188 43.4401C43.762 43.5675 43.6791 43.6817 43.5755 43.7752C43.4659 43.875 43.3355 43.9492 43.1937 43.9925C43.0519 44.0357 42.9022 44.0469 42.7555 44.0252C39.0238 43.5378 35.5558 41.8372 32.8855 39.1852C30.213 36.5126 28.4976 33.0325 28.0055 29.2852C27.9838 29.1385 27.995 28.9888 28.0382 28.847C28.0815 28.7052 28.1557 28.5748 28.2555 28.4652C28.3502 28.3603 28.4659 28.2767 28.5952 28.2198C28.7245 28.1629 28.8643 28.1341 29.0055 28.1352H32.0055C32.2367 28.1295 32.4627 28.2041 32.645 28.3464C32.8273 28.4886 32.9547 28.6896 33.0055 28.9152C33.0055 29.1852 33.0955 29.4652 33.1555 29.7352C33.2711 30.259 33.4249 30.7737 33.6155 31.2752L32.2155 31.9352C31.9749 32.0456 31.7879 32.247 31.6955 32.4952C31.5955 32.7386 31.5955 33.0117 31.6955 33.2552C33.1347 36.3379 35.6128 38.816 38.6955 40.2552C38.939 40.3552 39.2121 40.3552 39.4555 40.2552C39.7037 40.1628 39.9051 39.9758 40.0155 39.7352L40.6455 38.3352C41.1615 38.5233 41.6893 38.6769 42.2255 38.7952C42.4855 38.8552 42.7655 38.9052 43.0355 38.9452C43.2611 38.996 43.4621 39.1234 43.6043 39.3057C43.7466 39.488 43.8212 39.714 43.8155 39.9452L43.9055 43.0352ZM38.0055 26.0352C37.7755 26.0352 37.5355 26.0352 37.3055 26.0352C37.0403 26.0577 36.7949 26.1847 36.6233 26.3882C36.4517 26.5916 36.368 26.8549 36.3905 27.1202C36.4131 27.3854 36.5401 27.6308 36.7435 27.8024C36.947 27.974 37.2103 28.0577 37.4755 28.0352H38.0055C39.5968 28.0352 41.123 28.6673 42.2482 29.7925C43.3734 30.9177 44.0055 32.4439 44.0055 34.0352C44.0055 34.2152 44.0055 34.3852 44.0055 34.5652C43.9834 34.829 44.0667 35.0908 44.2373 35.2933C44.4079 35.4957 44.6518 35.6223 44.9155 35.6452H44.9955C45.2459 35.6462 45.4875 35.5533 45.6726 35.3848C45.8578 35.2163 45.973 34.9845 45.9955 34.7352C45.9955 34.5052 45.9955 34.2652 45.9955 34.0352C45.9955 31.9152 45.1541 29.8818 43.6559 28.3818C42.1578 26.8818 40.1255 26.0378 38.0055 26.0352ZM40.0055 34.0352C40.0055 34.3004 40.1109 34.5547 40.2984 34.7423C40.486 34.9298 40.7403 35.0352 41.0055 35.0352C41.2708 35.0352 41.5251 34.9298 41.7127 34.7423C41.9002 34.5547 42.0055 34.3004 42.0055 34.0352C42.0055 32.9743 41.5841 31.9569 40.834 31.2067C40.0838 30.4566 39.0664 30.0352 38.0055 30.0352C37.7403 30.0352 37.486 30.1405 37.2984 30.328C37.1109 30.5156 37.0055 30.7699 37.0055 31.0352C37.0055 31.3004 37.1109 31.5547 37.2984 31.7423C37.486 31.9298 37.7403 32.0352 38.0055 32.0352C38.536 32.0352 39.0447 32.2459 39.4198 32.6209C39.7948 32.996 40.0055 33.5047 40.0055 34.0352Z" fill="#246BFD"/>
</g>
<defs>
<filter id="filter0_d_12951_197294" x="0" y="0" width="80" height="80" filterUnits="userSpaceOnUse" color-interpolation-filters="sRGB">
<feFlood flood-opacity="0" result="BackgroundImageFix"/>
<feColorMatrix in="SourceAlpha" type="matrix" values="0 0 0 0 0 0 0 0 0 0 0 0 0 0 0 0 0 0 127 0" result="hardAlpha"/>
<feOffset dx="4" dy="4"/>
<feGaussianBlur stdDeviation="10"/>
<feComposite in2="hardAlpha" operator="out"/>
<feColorMatrix type="matrix" values="0 0 0 0 0.760784 0 0 0 0 0.831373 0 0 0 0 1 0 0 0 0.4 0"/>
<feBlend mode="normal" in2="BackgroundImageFix" result="effect1_dropShadow_12951_197294"/>
<feBlend mode="normal" in="SourceGraphic" in2="effect1_dropShadow_12951_197294" result="shape"/>
</filter>
</defs>
</svg>
