<svg width="80" height="80" viewBox="0 0 80 80" fill="none" xmlns="http://www.w3.org/2000/svg">
<g filter="url(#filter0_d_12951_197300)">
<rect x="16" y="16" width="40" height="40" rx="20" fill="#F2F6FF"/>
<path d="M46 39H44V36C44 35.7348 43.8946 35.4804 43.7071 35.2929C43.5196 35.1054 43.2652 35 43 35H37V33H39C39.2652 33 39.5196 32.8946 39.7071 32.7071C39.8946 32.5196 40 32.2652 40 32V26C40 25.7348 39.8946 25.4804 39.7071 25.2929C39.5196 25.1054 39.2652 25 39 25H33C32.7348 25 32.4804 25.1054 32.2929 25.2929C32.1054 25.4804 32 25.7348 32 26V32C32 32.2652 32.1054 32.5196 32.2929 32.7071C32.4804 32.8946 32.7348 33 33 33H35V35H29C28.7348 35 28.4804 35.1054 28.2929 35.2929C28.1054 35.4804 28 35.7348 28 36V39H26C25.7348 39 25.4804 39.1054 25.2929 39.2929C25.1054 39.4804 25 39.7348 25 40V46C25 46.2652 25.1054 46.5196 25.2929 46.7071C25.4804 46.8946 25.7348 47 26 47H32C32.2652 47 32.5196 46.8946 32.7071 46.7071C32.8946 46.5196 33 46.2652 33 46V40C33 39.7348 32.8946 39.4804 32.7071 39.2929C32.5196 39.1054 32.2652 39 32 39H30V37H42V39H40C39.7348 39 39.4804 39.1054 39.2929 39.2929C39.1054 39.4804 39 39.7348 39 40V46C39 46.2652 39.1054 46.5196 39.2929 46.7071C39.4804 46.8946 39.7348 47 40 47H46C46.2652 47 46.5196 46.8946 46.7071 46.7071C46.8946 46.5196 47 46.2652 47 46V40C47 39.7348 46.8946 39.4804 46.7071 39.2929C46.5196 39.1054 46.2652 39 46 39ZM31 41V45H27V41H31ZM34 31V27H38V31H34ZM45 45H41V41H45V45Z" fill="#E9203B"/>
</g>
<defs>
<filter id="filter0_d_12951_197300" x="0" y="0" width="80" height="80" filterUnits="userSpaceOnUse" color-interpolation-filters="sRGB">
<feFlood flood-opacity="0" result="BackgroundImageFix"/>
<feColorMatrix in="SourceAlpha" type="matrix" values="0 0 0 0 0 0 0 0 0 0 0 0 0 0 0 0 0 0 127 0" result="hardAlpha"/>
<feOffset dx="4" dy="4"/>
<feGaussianBlur stdDeviation="10"/>
<feComposite in2="hardAlpha" operator="out"/>
<feColorMatrix type="matrix" values="0 0 0 0 0.760784 0 0 0 0 0.831373 0 0 0 0 1 0 0 0 0.4 0"/>
<feBlend mode="normal" in2="BackgroundImageFix" result="effect1_dropShadow_12951_197300"/>
<feBlend mode="normal" in="SourceGraphic" in2="effect1_dropShadow_12951_197300" result="shape"/>
</filter>
</defs>
</svg>
