<svg width="80" height="80" viewBox="0 0 80 80" fill="none" xmlns="http://www.w3.org/2000/svg">
<g filter="url(#filter0_d_12951_197302)">
<rect x="16" y="16" width="40" height="40" rx="20" fill="#F2F6FF"/>
<path d="M32.8828 40.9962C32.685 40.9962 32.4917 41.0549 32.3272 41.1648C32.1628 41.2746 32.0346 41.4308 31.9589 41.6135C31.8832 41.7963 31.8634 41.9973 31.902 42.1913C31.9406 42.3853 32.0359 42.5635 32.1757 42.7033C32.3156 42.8432 32.4937 42.9384 32.6877 42.977C32.8817 43.0156 33.0828 42.9958 33.2655 42.9201C33.4482 42.8444 33.6044 42.7163 33.7143 42.5518C33.8242 42.3874 33.8828 42.194 33.8828 41.9962C33.8828 41.731 33.7775 41.4767 33.5899 41.2891C33.4024 41.1016 33.148 40.9962 32.8828 40.9962ZM29.8828 40.9962C29.685 40.9962 29.4917 41.0549 29.3272 41.1648C29.1628 41.2746 29.0346 41.4308 28.9589 41.6135C28.8832 41.7963 28.8634 41.9973 28.902 42.1913C28.9406 42.3853 29.0359 42.5635 29.1757 42.7033C29.3156 42.8432 29.4937 42.9384 29.6877 42.977C29.8817 43.0156 30.0828 42.9958 30.2655 42.9201C30.4482 42.8444 30.6044 42.7163 30.7143 42.5518C30.8242 42.3874 30.8828 42.194 30.8828 41.9962C30.8828 41.731 30.7775 41.4767 30.5899 41.2891C30.4024 41.1016 30.148 40.9962 29.8828 40.9962ZM35.8828 40.9962C35.685 40.9962 35.4917 41.0549 35.3272 41.1648C35.1628 41.2746 35.0346 41.4308 34.9589 41.6135C34.8832 41.7963 34.8634 41.9973 34.902 42.1913C34.9406 42.3853 35.0359 42.5635 35.1757 42.7033C35.3156 42.8432 35.4937 42.9384 35.6877 42.977C35.8817 43.0156 36.0828 42.9958 36.2655 42.9201C36.4482 42.8444 36.6044 42.7163 36.7143 42.5518C36.8242 42.3874 36.8828 42.194 36.8828 41.9962C36.8828 41.731 36.7775 41.4767 36.5899 41.2891C36.4024 41.1016 36.148 40.9962 35.8828 40.9962ZM38.9828 32.4962C39.0707 32.3447 39.1969 32.2189 39.3487 32.1315C39.5005 32.044 39.6726 31.998 39.8478 31.998C40.023 31.998 40.1951 32.044 40.3469 32.1315C40.4987 32.2189 40.6249 32.3447 40.7128 32.4962C40.8447 32.725 41.0618 32.8922 41.3165 32.9616C41.5713 33.0309 41.8432 32.9966 42.0728 32.8662C42.1908 32.8043 42.2952 32.7195 42.3799 32.6166C42.4646 32.5138 42.5279 32.3951 42.5661 32.2675C42.6043 32.1399 42.6166 32.0059 42.6023 31.8735C42.588 31.741 42.5474 31.6128 42.4828 31.4962C42.2198 31.0393 41.8409 30.6597 41.3845 30.3958C40.928 30.1319 40.4101 29.9929 39.8828 29.9929C39.3555 29.9929 38.8376 30.1319 38.3811 30.3958C37.9247 30.6597 37.5459 31.0393 37.2828 31.4962C37.1984 31.7171 37.195 31.9608 37.2731 32.1839C37.3513 32.4071 37.5061 32.5953 37.7099 32.7152C37.9137 32.8351 38.1534 32.8789 38.3864 32.8388C38.6195 32.7987 38.8308 32.6773 38.9828 32.4962ZM45.9828 29.4962C45.3681 28.4331 44.4846 27.5504 43.4209 26.9367C42.3572 26.3231 41.1508 26 39.9228 26C38.6948 26 37.4884 26.3231 36.4247 26.9367C35.361 27.5504 34.4775 28.4331 33.8628 29.4962C33.7967 29.6104 33.7538 29.7365 33.7366 29.8672C33.7194 29.998 33.7283 30.1309 33.7627 30.2582C33.7971 30.3856 33.8563 30.5049 33.937 30.6092C34.0177 30.7135 34.1182 30.8009 34.2328 30.8662C34.3704 30.9446 34.5246 30.9891 34.6828 30.9962C34.859 30.9969 35.0323 30.9511 35.1851 30.8633C35.3378 30.7754 35.4647 30.6488 35.5528 30.4962C35.9917 29.7362 36.6229 29.1051 37.3829 28.6663C38.143 28.2275 39.0052 27.9965 39.8828 27.9965C40.7605 27.9965 41.6226 28.2275 42.3827 28.6663C43.1428 29.1051 43.774 29.7362 44.2128 30.4962C44.2781 30.6108 44.3655 30.7113 44.4698 30.792C44.5742 30.8727 44.6935 30.932 44.8208 30.9664C44.9481 31.0007 45.081 31.0096 45.2118 30.9924C45.3426 30.9752 45.4687 30.9323 45.5828 30.8662C45.6999 30.8035 45.8033 30.718 45.887 30.6148C45.9707 30.5116 46.033 30.3927 46.0703 30.2652C46.1075 30.1376 46.1189 30.0039 46.1039 29.8719C46.0889 29.7399 46.0477 29.6122 45.9828 29.4962ZM41.8828 37.9962H40.8828V34.9962C40.8828 34.731 40.7775 34.4767 40.5899 34.2891C40.4024 34.1016 40.148 33.9962 39.8828 33.9962C39.6176 33.9962 39.3632 34.1016 39.1757 34.2891C38.9882 34.4767 38.8828 34.731 38.8828 34.9962V37.9962H28.8828C28.0872 37.9962 27.3241 38.3123 26.7615 38.8749C26.1989 39.4375 25.8828 40.2006 25.8828 40.9962V42.9962C25.8828 43.7919 26.1989 44.5549 26.7615 45.1176C27.3241 45.6802 28.0872 45.9962 28.8828 45.9962H41.8828C42.6785 45.9962 43.4415 45.6802 44.0041 45.1176C44.5667 44.5549 44.8828 43.7919 44.8828 42.9962V40.9962C44.8828 40.2006 44.5667 39.4375 44.0041 38.8749C43.4415 38.3123 42.6785 37.9962 41.8828 37.9962ZM42.8828 42.9962C42.8828 43.2614 42.7775 43.5158 42.5899 43.7033C42.4024 43.8909 42.148 43.9962 41.8828 43.9962H28.8828C28.6176 43.9962 28.3632 43.8909 28.1757 43.7033C27.9882 43.5158 27.8828 43.2614 27.8828 42.9962V40.9962C27.8828 40.731 27.9882 40.4767 28.1757 40.2891C28.3632 40.1016 28.6176 39.9962 28.8828 39.9962H41.8828C42.148 39.9962 42.4024 40.1016 42.5899 40.2891C42.7775 40.4767 42.8828 40.731 42.8828 40.9962V42.9962Z" fill="#500043"/>
</g>
<defs>
<filter id="filter0_d_12951_197302" x="0" y="0" width="80" height="80" filterUnits="userSpaceOnUse" color-interpolation-filters="sRGB">
<feFlood flood-opacity="0" result="BackgroundImageFix"/>
<feColorMatrix in="SourceAlpha" type="matrix" values="0 0 0 0 0 0 0 0 0 0 0 0 0 0 0 0 0 0 127 0" result="hardAlpha"/>
<feOffset dx="4" dy="4"/>
<feGaussianBlur stdDeviation="10"/>
<feComposite in2="hardAlpha" operator="out"/>
<feColorMatrix type="matrix" values="0 0 0 0 0.760784 0 0 0 0 0.831373 0 0 0 0 1 0 0 0 0.4 0"/>
<feBlend mode="normal" in2="BackgroundImageFix" result="effect1_dropShadow_12951_197302"/>
<feBlend mode="normal" in="SourceGraphic" in2="effect1_dropShadow_12951_197302" result="shape"/>
</filter>
</defs>
</svg>
