<svg width="80" height="80" viewBox="0 0 80 80" fill="none" xmlns="http://www.w3.org/2000/svg">
<g filter="url(#filter0_d_12951_197298)">
<rect x="16" y="16" width="40" height="40" rx="20" fill="#F2F6FF"/>
<path d="M32 30.0117H35C35.2652 30.0117 35.5196 29.9064 35.7071 29.7188C35.8946 29.5313 36 29.2769 36 29.0117C36 28.7465 35.8946 28.4921 35.7071 28.3046C35.5196 28.1171 35.2652 28.0117 35 28.0117H32C31.7348 28.0117 31.4804 28.1171 31.2929 28.3046C31.1054 28.4921 31 28.7465 31 29.0117C31 29.2769 31.1054 29.5313 31.2929 29.7188C31.4804 29.9064 31.7348 30.0117 32 30.0117ZM40 30.0117C40.1978 30.0117 40.3911 29.9531 40.5556 29.8432C40.72 29.7333 40.8482 29.5771 40.9239 29.3944C40.9996 29.2117 41.0194 29.0106 40.9808 28.8166C40.9422 28.6226 40.847 28.4445 40.7071 28.3046C40.5673 28.1648 40.3891 28.0695 40.1951 28.0309C40.0011 27.9923 39.8 28.0122 39.6173 28.0878C39.4346 28.1635 39.2784 28.2917 39.1685 28.4561C39.0586 28.6206 39 28.8139 39 29.0117C39 29.2769 39.1054 29.5313 39.2929 29.7188C39.4804 29.9064 39.7348 30.0117 40 30.0117ZM40 34.0117C39.8022 34.0117 39.6089 34.0704 39.4444 34.1802C39.28 34.2901 39.1518 34.4463 39.0761 34.629C39.0004 34.8118 38.9806 35.0128 39.0192 35.2068C39.0578 35.4008 39.153 35.579 39.2929 35.7188C39.4327 35.8587 39.6109 35.9539 39.8049 35.9925C39.9989 36.0311 40.2 36.0113 40.3827 35.9356C40.5654 35.8599 40.7216 35.7317 40.8315 35.5673C40.9414 35.4028 41 35.2095 41 35.0117C41 34.7465 40.8946 34.4921 40.7071 34.3046C40.5196 34.1171 40.2652 34.0117 40 34.0117ZM45 43.0117H38.82C38.6707 42.5923 38.4299 42.2114 38.1151 41.8966C37.8003 41.5818 37.4194 41.341 37 41.1917V39.0117H41C41.7956 39.0117 42.5587 38.6956 43.1213 38.133C43.6839 37.5704 44 36.8074 44 36.0117V34.0117C43.9956 33.2717 43.7178 32.5594 43.22 32.0117C43.7178 31.4641 43.9956 30.7518 44 30.0117V28.0117C44 27.2161 43.6839 26.453 43.1213 25.8904C42.5587 25.3278 41.7956 25.0117 41 25.0117H31C30.2044 25.0117 29.4413 25.3278 28.8787 25.8904C28.3161 26.453 28 27.2161 28 28.0117V30.0117C28.0044 30.7518 28.2822 31.4641 28.78 32.0117C28.2822 32.5594 28.0044 33.2717 28 34.0117V36.0117C28 36.8074 28.3161 37.5704 28.8787 38.133C29.4413 38.6956 30.2044 39.0117 31 39.0117H35V41.1917C34.5806 41.341 34.1997 41.5818 33.8849 41.8966C33.5701 42.2114 33.3293 42.5923 33.18 43.0117H27C26.7348 43.0117 26.4804 43.1171 26.2929 43.3046C26.1054 43.4921 26 43.7465 26 44.0117C26 44.2769 26.1054 44.5313 26.2929 44.7188C26.4804 44.9064 26.7348 45.0117 27 45.0117H33.18C33.3902 45.5909 33.7736 46.0913 34.2782 46.4449C34.7827 46.7985 35.3839 46.9882 36 46.9882C36.6161 46.9882 37.2173 46.7985 37.7218 46.4449C38.2264 46.0913 38.6098 45.5909 38.82 45.0117H45C45.2652 45.0117 45.5196 44.9064 45.7071 44.7188C45.8946 44.5313 46 44.2769 46 44.0117C46 43.7465 45.8946 43.4921 45.7071 43.3046C45.5196 43.1171 45.2652 43.0117 45 43.0117ZM30 28.0117C30 27.7465 30.1054 27.4921 30.2929 27.3046C30.4804 27.1171 30.7348 27.0117 31 27.0117H41C41.2652 27.0117 41.5196 27.1171 41.7071 27.3046C41.8946 27.4921 42 27.7465 42 28.0117V30.0117C42 30.2769 41.8946 30.5313 41.7071 30.7188C41.5196 30.9064 41.2652 31.0117 41 31.0117H31C30.7348 31.0117 30.4804 30.9064 30.2929 30.7188C30.1054 30.5313 30 30.2769 30 30.0117V28.0117ZM31 37.0117C30.7348 37.0117 30.4804 36.9064 30.2929 36.7188C30.1054 36.5313 30 36.2769 30 36.0117V34.0117C30 33.7465 30.1054 33.4921 30.2929 33.3046C30.4804 33.1171 30.7348 33.0117 31 33.0117H41C41.2652 33.0117 41.5196 33.1171 41.7071 33.3046C41.8946 33.4921 42 33.7465 42 34.0117V36.0117C42 36.2769 41.8946 36.5313 41.7071 36.7188C41.5196 36.9064 41.2652 37.0117 41 37.0117H31ZM36 45.0117C35.8022 45.0117 35.6089 44.9531 35.4444 44.8432C35.28 44.7333 35.1518 44.5771 35.0761 44.3944C35.0004 44.2117 34.9806 44.0106 35.0192 43.8166C35.0578 43.6226 35.153 43.4445 35.2929 43.3046C35.4327 43.1648 35.6109 43.0695 35.8049 43.0309C35.9989 42.9923 36.2 43.0122 36.3827 43.0878C36.5654 43.1635 36.7216 43.2917 36.8315 43.4561C36.9414 43.6206 37 43.8139 37 44.0117C37 44.2769 36.8946 44.5313 36.7071 44.7188C36.5196 44.9064 36.2652 45.0117 36 45.0117ZM35 34.0117H32C31.7348 34.0117 31.4804 34.1171 31.2929 34.3046C31.1054 34.4921 31 34.7465 31 35.0117C31 35.2769 31.1054 35.5313 31.2929 35.7188C31.4804 35.9064 31.7348 36.0117 32 36.0117H35C35.2652 36.0117 35.5196 35.9064 35.7071 35.7188C35.8946 35.5313 36 35.2769 36 35.0117C36 34.7465 35.8946 34.4921 35.7071 34.3046C35.5196 34.1171 35.2652 34.0117 35 34.0117Z" fill="#1DAF2B"/>
</g>
<defs>
<filter id="filter0_d_12951_197298" x="0" y="0" width="80" height="80" filterUnits="userSpaceOnUse" color-interpolation-filters="sRGB">
<feFlood flood-opacity="0" result="BackgroundImageFix"/>
<feColorMatrix in="SourceAlpha" type="matrix" values="0 0 0 0 0 0 0 0 0 0 0 0 0 0 0 0 0 0 127 0" result="hardAlpha"/>
<feOffset dx="4" dy="4"/>
<feGaussianBlur stdDeviation="10"/>
<feComposite in2="hardAlpha" operator="out"/>
<feColorMatrix type="matrix" values="0 0 0 0 0.760784 0 0 0 0 0.831373 0 0 0 0 1 0 0 0 0.4 0"/>
<feBlend mode="normal" in2="BackgroundImageFix" result="effect1_dropShadow_12951_197298"/>
<feBlend mode="normal" in="SourceGraphic" in2="effect1_dropShadow_12951_197298" result="shape"/>
</filter>
</defs>
</svg>
