<svg width="199" height="42" viewBox="0 0 199 42" fill="none" xmlns="http://www.w3.org/2000/svg">
<g filter="url(#filter0_d_13592_171626)">
<ellipse cx="71.6021" cy="17" rx="16.6724" ry="16.5" fill="#246BFD"/>
<path d="M67.1406 10.0269C67.1406 8.47383 68.3996 7.21484 69.9526 7.21484H75.3791C80.4653 7.21484 84.5884 11.338 84.5884 16.4241C84.5884 21.5103 80.4653 25.6334 75.3791 25.6334H69.9104C68.3807 25.6334 67.1406 24.3934 67.1406 22.8637V10.0269Z" fill="#FFBA49"/>
<path d="M61.3281 7.21484H72.3784L68.1586 21.9881H65.99L61.3281 7.21484Z" fill="#1DAF2B"/>
<rect x="67.9219" y="24.8672" width="6.5914" height="3.64535" fill="#FFBA49"/>
<path fill-rule="evenodd" clip-rule="evenodd" d="M60.9966 5.10547L66.1341 21.5954L71.0594 5.11836L74.3228 6.07379L66.5593 31.9954L58.8047 7.82095L60.9966 5.10547Z" fill="#246BFD"/>
<path d="M7.17894 10.3199L10.4504 20.4972H10.576L13.8541 10.3199H17.0264L12.3604 23.7152H8.67258L4 10.3199H7.17894Z" fill="white"/>
<path d="M21.7111 10.3199V23.7152H18.8494V10.3199H21.7111Z" fill="white"/>
<path d="M29.0576 23.7152H24.2594V10.3199H29.0972C30.4587 10.3199 31.6307 10.588 32.6132 11.1244C33.5957 11.6563 34.3514 12.4216 34.8801 13.4201C35.4132 14.4187 35.6798 15.6135 35.6798 17.0045C35.6798 18.3998 35.4132 19.5989 34.8801 20.6018C34.3514 21.6047 33.5913 22.3744 32.6 22.9107C31.613 23.447 30.4322 23.7152 29.0576 23.7152ZM27.1211 21.2886H28.9386C29.7845 21.2886 30.4961 21.1404 31.0733 20.8438C31.6549 20.543 32.0911 20.0786 32.3819 19.4507C32.6771 18.8184 32.8247 18.003 32.8247 17.0045C32.8247 16.0146 32.6771 15.2058 32.3819 14.5779C32.0911 13.9499 31.6571 13.4877 31.0799 13.1912C30.5027 12.8947 29.7912 12.7465 28.9452 12.7465H27.1211V21.2886Z" fill="white"/>
<path d="M39.5631 23.7152H36.4966L41.1691 10.3199H44.857L49.5229 23.7152H46.4564L43.0659 13.3809H42.9602L39.5631 23.7152ZM39.3715 18.4499H46.615V20.6607H39.3715V18.4499Z" fill="white"/>
<path d="M96.0438 23.7152V10.3199H101.384C102.411 10.3199 103.285 10.5139 104.008 10.902C104.73 11.2857 105.281 11.8199 105.66 12.5045C106.043 13.1847 106.235 13.9696 106.235 14.8591C106.235 15.7486 106.041 16.5335 105.653 17.2138C105.266 17.894 104.704 18.4238 103.968 18.8031C103.237 19.1825 102.351 19.3722 101.311 19.3722H97.9076V17.1026H100.849C101.399 17.1026 101.853 17.0088 102.21 16.8213C102.571 16.6295 102.84 16.3656 103.016 16.0299C103.197 15.6898 103.287 15.2995 103.287 14.8591C103.287 14.4143 103.197 14.0263 103.016 13.6949C102.84 13.3591 102.571 13.0997 102.21 12.9165C101.849 12.729 101.391 12.6353 100.835 12.6353H98.9055V23.7152H96.0438Z" fill="white"/>
<path d="M108.288 23.7152V10.3199H113.628C114.65 10.3199 115.522 10.5008 116.245 10.8627C116.972 11.2203 117.525 11.7283 117.904 12.3867C118.287 13.0408 118.479 13.8104 118.479 14.6956C118.479 15.5851 118.285 16.3504 117.897 16.9914C117.509 17.628 116.948 18.1164 116.212 18.4565C115.48 18.7966 114.595 18.9667 113.555 18.9667H109.98V16.6905H113.092C113.639 16.6905 114.093 16.6164 114.454 16.4681C114.815 16.3199 115.084 16.0975 115.26 15.801C115.441 15.5045 115.531 15.136 115.531 14.6956C115.531 14.2508 115.441 13.8758 115.26 13.5706C115.084 13.2654 114.813 13.0342 114.447 12.8773C114.086 12.7159 113.63 12.6353 113.079 12.6353H111.149V23.7152H108.288ZM115.597 17.6193L118.961 23.7152H115.802L112.511 17.6193H115.597Z" fill="white"/>
<path d="M133.133 17.0175C133.133 18.4783 132.853 19.721 132.294 20.7457C131.739 21.7704 130.981 22.5531 130.02 23.0938C129.064 23.6302 127.989 23.8983 126.795 23.8983C125.592 23.8983 124.513 23.628 123.557 23.0873C122.601 22.5466 121.845 21.7639 121.29 20.7392C120.735 19.7145 120.457 18.4739 120.457 17.0175C120.457 15.5568 120.735 14.314 121.29 13.2893C121.845 12.2646 122.601 11.4841 123.557 10.9478C124.513 10.4071 125.592 10.1367 126.795 10.1367C127.989 10.1367 129.064 10.4071 130.02 10.9478C130.981 11.4841 131.739 12.2646 132.294 13.2893C132.853 14.314 133.133 15.5568 133.133 17.0175ZM130.232 17.0175C130.232 16.0713 130.089 15.2733 129.802 14.6236C129.52 13.9739 129.121 13.4812 128.606 13.1454C128.09 12.8097 127.487 12.6418 126.795 12.6418C126.103 12.6418 125.5 12.8097 124.984 13.1454C124.469 13.4812 124.068 13.9739 123.781 14.6236C123.499 15.2733 123.358 16.0713 123.358 17.0175C123.358 17.9638 123.499 18.7617 123.781 19.4114C124.068 20.0611 124.469 20.5539 124.984 20.8896C125.5 21.2254 126.103 21.3933 126.795 21.3933C127.487 21.3933 128.09 21.2254 128.606 20.8896C129.121 20.5539 129.52 20.0611 129.802 19.4114C130.089 18.7617 130.232 17.9638 130.232 17.0175Z" fill="white"/>
<path d="M140.866 10.3199H143.695V19.66C143.695 20.5233 143.499 21.2733 143.107 21.91C142.719 22.5466 142.179 23.0372 141.487 23.3816C140.796 23.7261 139.992 23.8983 139.075 23.8983C138.26 23.8983 137.52 23.7566 136.855 23.4732C136.194 23.1854 135.669 22.7494 135.282 22.1651C134.894 21.5764 134.702 20.8373 134.707 19.9478H137.555C137.564 20.301 137.637 20.604 137.773 20.8569C137.914 21.1055 138.106 21.2973 138.348 21.4325C138.595 21.5633 138.886 21.6287 139.221 21.6287C139.573 21.6287 139.87 21.5546 140.113 21.4063C140.36 21.2537 140.547 21.0313 140.675 20.7392C140.802 20.447 140.866 20.0873 140.866 19.66V10.3199Z" fill="white"/>
<path d="M146.255 23.7152V10.3199H155.375V12.6549H149.116V15.8467H154.906V18.1818H149.116V21.3802H155.402V23.7152H146.255Z" fill="white"/>
<path d="M169.787 15.0095H166.892C166.839 14.6389 166.731 14.3097 166.568 14.0219C166.405 13.7297 166.196 13.4812 165.94 13.2763C165.685 13.0713 165.39 12.9143 165.055 12.8053C164.724 12.6963 164.365 12.6418 163.977 12.6418C163.277 12.6418 162.667 12.814 162.147 13.1585C161.627 13.4986 161.224 13.9957 160.937 14.6498C160.651 15.2995 160.508 16.0888 160.508 17.0175C160.508 17.9725 160.651 18.7748 160.937 19.4245C161.228 20.0742 161.633 20.5648 162.153 20.8962C162.673 21.2276 163.275 21.3933 163.958 21.3933C164.341 21.3933 164.696 21.3431 165.022 21.2428C165.352 21.1425 165.645 20.9965 165.901 20.8046C166.156 20.6084 166.368 20.3707 166.535 20.0917C166.707 19.8126 166.826 19.4943 166.892 19.1367L169.787 19.1498C169.712 19.7646 169.525 20.3576 169.225 20.9289C168.93 21.4957 168.531 22.0037 168.029 22.4529C167.531 22.8976 166.936 23.2508 166.244 23.5124C165.557 23.7697 164.779 23.8983 163.911 23.8983C162.704 23.8983 161.625 23.628 160.673 23.0873C159.726 22.5466 158.977 21.7639 158.426 20.7392C157.88 19.7145 157.606 18.4739 157.606 17.0175C157.606 15.5568 157.884 14.314 158.439 13.2893C158.994 12.2646 159.748 11.4841 160.699 10.9478C161.651 10.4071 162.722 10.1367 163.911 10.1367C164.696 10.1367 165.423 10.2457 166.092 10.4638C166.766 10.6818 167.363 11.0001 167.883 11.4187C168.403 11.8329 168.826 12.3409 169.152 12.9427C169.483 13.5444 169.694 14.2334 169.787 15.0095Z" fill="white"/>
<path d="M171.517 12.6549V10.3199H182.634V12.6549H178.49V23.7152H175.661V12.6549H171.517Z" fill="white"/>
<path d="M192.001 14.1723C191.948 13.6447 191.721 13.2348 191.32 12.9427C190.919 12.6505 190.375 12.5045 189.688 12.5045C189.221 12.5045 188.826 12.5699 188.505 12.7007C188.183 12.8271 187.936 13.0037 187.764 13.2305C187.597 13.4572 187.513 13.7145 187.513 14.0023C187.504 14.2421 187.555 14.4514 187.665 14.6302C187.78 14.809 187.936 14.9638 188.134 15.0946C188.333 15.221 188.562 15.3322 188.822 15.4281C189.082 15.5197 189.359 15.5982 189.655 15.6636L190.871 15.9514C191.461 16.0822 192.003 16.2566 192.496 16.4747C192.99 16.6927 193.417 16.9608 193.779 17.2792C194.14 17.5975 194.42 17.9725 194.618 18.4042C194.821 18.8358 194.924 19.3308 194.929 19.8889C194.924 20.7087 194.713 21.4194 194.294 22.0212C193.88 22.6186 193.281 23.0829 192.496 23.4143C191.717 23.7414 190.776 23.9049 189.674 23.9049C188.582 23.9049 187.63 23.7392 186.819 23.4078C186.013 23.0764 185.383 22.5858 184.929 21.9361C184.48 21.2821 184.244 20.4732 184.222 19.5095H186.991C187.022 19.9587 187.152 20.3337 187.381 20.6345C187.615 20.9311 187.925 21.1556 188.313 21.3082C188.705 21.4565 189.148 21.5306 189.641 21.5306C190.126 21.5306 190.547 21.4608 190.904 21.3213C191.265 21.1818 191.545 20.9877 191.743 20.7392C191.941 20.4906 192.04 20.205 192.04 19.8824C192.04 19.5815 191.95 19.3286 191.769 19.1236C191.593 18.9187 191.333 18.7443 190.99 18.6004C190.65 18.4565 190.234 18.3257 189.74 18.2079L188.267 17.8417C187.126 17.567 186.224 17.1374 185.564 16.5531C184.903 15.9688 184.574 15.1818 184.579 14.192C184.574 13.3809 184.793 12.6723 185.233 12.0662C185.678 11.4601 186.288 10.987 187.064 10.6469C187.839 10.3068 188.72 10.1367 189.707 10.1367C190.712 10.1367 191.589 10.3068 192.338 10.6469C193.091 10.987 193.677 11.4601 194.096 12.0662C194.514 12.6723 194.73 13.3744 194.744 14.1723H192.001Z" fill="white"/>
</g>
<defs>
<filter id="filter0_d_13592_171626" x="0" y="0.5" width="198.93" height="41" filterUnits="userSpaceOnUse" color-interpolation-filters="sRGB">
<feFlood flood-opacity="0" result="BackgroundImageFix"/>
<feColorMatrix in="SourceAlpha" type="matrix" values="0 0 0 0 0 0 0 0 0 0 0 0 0 0 0 0 0 0 127 0" result="hardAlpha"/>
<feOffset dy="4"/>
<feGaussianBlur stdDeviation="2"/>
<feComposite in2="hardAlpha" operator="out"/>
<feColorMatrix type="matrix" values="0 0 0 0 0 0 0 0 0 0 0 0 0 0 0 0 0 0 0.25 0"/>
<feBlend mode="normal" in2="BackgroundImageFix" result="effect1_dropShadow_13592_171626"/>
<feBlend mode="normal" in="SourceGraphic" in2="effect1_dropShadow_13592_171626" result="shape"/>
</filter>
</defs>
</svg>
